<svg  xmlns="http://www.w3.org/2000/svg" xmlns:xlink="http://www.w3.org/1999/xlink" width="398px" height="500px" fill='#fff' ><path fill-rule="evenodd" d="M315.371,-0.000 C359.261,-0.753 380.417,47.488 367.931,92.272 C355.171,138.041 330.861,174.340 298.313,200.231 C287.710,208.996 277.103,217.763 266.500,226.528 C261.122,230.219 255.742,233.910 250.364,237.601 C249.442,241.291 248.519,244.983 247.597,248.674 C243.295,261.590 238.991,274.511 234.688,287.428 C233.086,291.965 229.208,300.030 230.539,303.576 C236.028,305.539 240.548,310.395 243.909,314.648 C248.194,320.071 252.562,325.144 254.513,333.103 C259.554,353.660 254.704,375.927 262.812,392.618 C286.617,379.745 293.250,325.912 340.268,340.946 C346.109,342.813 349.790,346.468 354.100,349.712 C354.253,349.712 354.407,349.712 354.561,349.712 C354.987,335.741 356.346,321.885 351.333,310.496 C348.252,303.496 341.184,300.012 339.346,291.580 C334.113,267.575 361.210,259.672 375.769,270.819 C405.787,293.802 403.495,371.157 380.379,399.1000 C361.346,423.749 334.087,402.759 325.515,385.236 C324.593,386.005 323.670,386.774 322.748,387.543 C311.018,417.245 257.963,463.053 228.233,419.839 C222.965,412.181 218.459,402.512 216.246,392.157 C213.719,380.332 214.507,358.383 209.791,349.250 C209.638,349.558 209.484,349.865 209.330,350.173 C203.184,362.013 197.035,373.857 190.888,385.698 C169.592,421.550 148.058,464.636 113.893,487.659 C77.063,512.478 32.635,496.782 12.463,467.820 C-2.720,446.022 -4.137,407.586 8.774,382.007 C31.576,336.833 69.813,310.508 122.192,295.271 C133.410,292.964 144.631,290.657 155.849,288.351 C166.028,286.215 181.110,291.141 189.044,287.428 C191.196,280.816 193.348,274.202 195.499,267.589 C177.080,275.764 158.260,283.325 136.024,287.889 C127.111,288.658 118.196,289.427 109.283,290.196 C103.905,289.889 98.525,289.581 93.146,289.273 C85.097,287.860 78.680,289.406 71.938,287.428 C45.973,279.810 26.941,259.669 18.456,234.833 C15.455,226.048 16.218,218.062 14.307,207.612 C11.913,194.528 12.780,177.370 15.690,164.706 C25.709,121.104 46.466,84.075 76.548,60.438 C87.914,51.508 101.187,42.312 115.276,36.448 C120.962,34.602 126.650,32.756 132.335,30.911 C140.289,28.951 150.660,29.377 158.154,30.911 C176.083,34.582 188.925,41.559 197.343,54.441 C219.722,88.684 214.361,176.438 201.493,217.301 C205.334,215.456 209.177,213.610 213.019,211.765 C217.321,192.851 221.625,173.931 225.928,155.017 C238.716,98.672 242.886,44.733 281.254,14.764 C287.678,9.746 297.235,3.772 305.228,0.923 C308.609,0.615 311.991,0.308 315.371,-0.000 ZM315.833,44.291 C295.676,57.928 288.200,76.282 280.332,102.422 C278.757,107.653 273.910,120.630 275.721,125.952 C275.875,125.644 276.029,125.336 276.182,125.029 C284.603,117.016 295.195,91.839 313.066,95.502 C315.525,96.578 317.984,97.655 320.443,98.731 C323.780,86.328 338.827,45.921 315.833,44.291 ZM144.784,72.434 C137.991,76.286 129.969,76.870 123.575,80.738 C99.979,95.014 79.621,115.778 68.250,142.099 C56.338,169.670 49.024,205.138 66.866,231.603 C70.179,236.517 73.319,241.473 78.854,244.060 C99.981,253.937 129.753,244.123 149.394,240.830 C152.621,230.066 155.849,219.299 159.076,208.535 C151.192,214.501 121.227,230.239 106.517,224.683 C96.386,220.856 94.400,199.859 106.056,196.078 C101.028,192.088 93.959,192.323 91.763,185.467 C87.337,171.652 97.365,160.703 111.588,163.783 C126.692,167.054 146.707,172.444 157.693,180.854 C159.691,183.468 161.689,186.083 163.687,188.697 C165.531,178.394 167.375,168.088 169.219,157.785 C172.747,139.107 170.038,117.031 166.453,100.577 C163.109,85.230 163.533,72.397 144.784,72.434 ZM269.728,152.249 C268.345,159.630 266.961,167.013 265.578,174.394 C265.732,174.394 265.886,174.394 266.039,174.394 C270.957,169.935 275.876,165.474 280.793,161.015 C280.793,160.861 280.793,160.707 280.793,160.554 C274.845,159.370 273.745,155.033 269.728,152.249 ZM161.842,330.796 C152.682,335.130 138.211,335.284 128.647,338.639 C96.329,349.975 69.000,364.832 52.574,392.157 C41.578,410.448 36.488,435.789 55.340,450.288 C74.1000,465.408 89.780,452.468 102.367,439.677 C111.509,430.387 118.044,418.947 125.420,407.843 C141.471,383.677 156.433,358.469 169.680,331.257 C169.680,331.103 169.680,330.950 169.680,330.796 C167.068,330.796 164.455,330.796 161.842,330.796 Z"/></svg>