<?xml version="1.0" standalone="no"?>
<!DOCTYPE svg PUBLIC "-//W3C//DTD SVG 20010904//EN"
 "http://www.w3.org/TR/2001/REC-SVG-20010904/DTD/svg10.dtd">
<svg version="1.0" xmlns="http://www.w3.org/2000/svg"
 width="1000.000000pt" height="1000.000000pt" viewBox="0 0 1000.000000 1000.000000"
 preserveAspectRatio="xMidYMid meet">
<metadata>
Created by potrace 1.14, written by Peter Selinger 2001-2017
</metadata>
<g transform="translate(0.000000,1000.000000) scale(0.100000,-0.100000)"
fill="#000000" stroke="none">
<path d="M7196 9989 c-90 -11 -171 -43 -304 -120 -322 -188 -559 -429 -737
-749 -81 -147 -165 -348 -231 -550 -91 -283 -152 -534 -269 -1115 -59 -294
-137 -653 -195 -900 -35 -148 -163 -710 -170 -748 -4 -21 -9 -40 -12 -42 -5
-5 -217 -105 -222 -105 -3 0 0 15 6 33 90 290 170 793 198 1252 32 540 -1
1068 -93 1460 -118 501 -337 769 -747 913 -231 81 -513 110 -708 72 -65 -12
-311 -91 -412 -131 -193 -78 -481 -258 -735 -458 -421 -332 -748 -775 -985
-1331 -118 -276 -234 -664 -277 -925 -25 -154 -26 -548 -1 -685 10 -52 25
-165 33 -250 24 -236 52 -334 151 -531 165 -330 424 -586 747 -739 172 -81
245 -101 382 -106 66 -3 161 -9 210 -14 240 -25 458 -23 705 5 19 2 71 6 115
10 44 3 125 15 180 26 98 21 373 97 444 124 20 7 77 28 126 45 50 18 104 38
120 45 17 7 46 18 65 25 19 7 102 42 184 77 82 35 152 62 156 61 3 -2 -22 -88
-56 -193 l-62 -190 -39 -14 c-44 -16 -137 -18 -393 -7 -195 9 -205 8 -465 -49
-38 -8 -159 -33 -267 -55 -318 -65 -659 -186 -998 -354 -143 -71 -340 -186
-423 -246 -23 -17 -65 -48 -93 -68 -167 -121 -404 -340 -516 -478 -87 -107
-106 -130 -140 -178 -153 -211 -301 -483 -355 -651 -129 -400 -122 -864 18
-1237 72 -194 168 -337 327 -489 279 -266 634 -416 1007 -425 172 -4 301 14
450 61 257 81 496 236 744 483 92 92 138 143 254 282 164 196 421 587 682
1040 65 113 128 221 140 240 58 93 395 725 395 743 0 2 20 40 45 83 l44 78 11
-30 c31 -80 56 -237 75 -479 28 -357 71 -529 191 -755 247 -466 615 -608 1073
-415 171 72 375 216 519 365 168 173 271 311 348 466 45 91 92 144 102 114 14
-40 131 -196 191 -252 292 -276 596 -309 823 -90 105 101 190 235 263 412 56
139 122 404 140 570 3 25 9 81 14 125 11 102 11 417 0 515 -15 140 -19 165
-34 242 -62 321 -175 567 -332 720 -121 118 -242 165 -406 156 -127 -7 -212
-42 -287 -117 -65 -66 -95 -124 -110 -215 -22 -141 19 -261 141 -406 148 -175
185 -324 177 -707 -2 -117 -7 -216 -11 -219 -3 -4 -44 22 -89 56 -100 76 -157
103 -280 135 -79 20 -113 23 -223 21 -139 -3 -155 -5 -242 -38 -122 -45 -239
-133 -351 -261 -34 -40 -126 -164 -204 -277 -78 -113 -162 -231 -186 -263 -58
-77 -156 -175 -210 -212 -51 -34 -51 -34 -86 75 -36 114 -55 253 -66 500 -25
554 -54 668 -225 895 -97 129 -194 224 -265 260 -30 15 -50 32 -51 43 -3 47 7
88 52 217 113 319 283 838 313 955 l32 125 162 112 c248 172 930 740 1132 942
453 454 780 997 993 1646 93 284 123 427 133 650 20 407 -99 786 -331 1059
-125 147 -311 262 -505 313 -109 29 -284 38 -414 22z m227 -894 c167 -70 206
-288 117 -667 -28 -119 -102 -382 -110 -391 -4 -5 -41 6 -81 24 -206 93 -381
1 -618 -321 -50 -69 -115 -154 -144 -190 l-52 -65 -3 55 c-4 65 8 126 54 280
53 173 156 493 166 510 4 8 19 44 34 80 106 261 262 479 454 632 92 73 117 81
183 53z m-3341 -565 c81 -23 171 -123 198 -220 11 -38 92 -437 110 -537 5 -35
12 -75 15 -90 28 -169 38 -574 16 -726 -6 -49 -32 -198 -55 -330 -24 -133 -50
-275 -57 -315 -7 -40 -16 -71 -21 -70 -5 2 -35 37 -67 78 -45 59 -73 84 -132
119 -149 88 -378 173 -669 248 -126 33 -160 38 -260 38 -129 0 -167 -13 -235
-80 -93 -94 -117 -263 -55 -385 25 -50 54 -71 166 -124 95 -45 110 -60 74 -71
-10 -3 -37 -26 -58 -50 -134 -152 -62 -464 120 -516 62 -18 210 -15 303 5 185
42 438 147 624 259 52 31 95 57 96 57 3 0 -36 -131 -134 -461 l-53 -176 -111
-21 c-62 -12 -177 -36 -256 -52 -412 -86 -684 -97 -905 -40 -167 44 -248 105
-357 268 -99 147 -182 335 -203 460 -23 132 -28 188 -28 327 0 199 20 350 73
558 25 101 103 338 129 392 10 22 35 78 55 124 111 257 313 540 546 766 172
166 275 249 459 368 117 75 146 89 292 135 69 22 144 50 165 62 31 17 50 20
108 16 39 -3 87 -10 107 -16z m2407 -1644 c35 -35 81 -72 102 -82 22 -9 39
-20 39 -24 0 -7 -11 -17 -170 -160 -52 -47 -98 -89 -101 -94 -4 -5 -11 -7 -16
-5 -10 4 66 429 77 429 3 0 34 -29 69 -64z m-2079 -3507 c0 -16 -207 -419
-305 -594 -90 -163 -326 -555 -421 -700 -35 -55 -68 -107 -71 -115 -4 -8 -11
-19 -15 -25 -5 -5 -86 -127 -181 -270 -95 -144 -201 -297 -237 -340 -80 -99
-212 -230 -308 -306 -292 -233 -556 -225 -807 26 -132 132 -175 235 -182 440
-4 100 -1 151 12 215 87 427 419 856 885 1145 280 173 734 364 980 412 69 13
182 35 252 49 70 13 155 35 190 48 70 26 208 36 208 15z"/>
</g>
</svg>
