<svg  xmlns="http://www.w3.org/2000/svg" xmlns:xlink="http://www.w3.org/1999/xlink" width="395px" height="500px"><path fill-rule="evenodd" d="M339.963,7.725 C374.873,27.248 370.795,69.632 357.466,108.122 C344.513,145.525 312.586,180.417 284.143,202.835 C274.525,210.412 264.904,217.990 255.286,225.567 C251.502,228.092 247.717,230.618 243.933,233.144 C240.622,244.982 237.310,256.824 233.999,268.662 C231.389,276.277 219.900,302.523 220.281,307.968 C233.156,312.665 244.391,324.438 248.191,338.276 C254.516,361.315 245.160,392.567 260.963,405.523 C286.713,398.104 289.674,364.571 311.580,352.957 C332.180,342.035 353.852,353.509 359.831,370.479 C360.147,370.479 360.462,370.479 360.778,370.479 C362.991,353.602 368.415,332.162 362.670,313.651 C359.694,304.062 350.744,299.452 348.478,289.972 C345.830,278.892 358.781,270.628 367.400,273.397 C401.690,284.415 401.109,366.853 381.592,395.104 C370.569,411.061 352.829,411.095 341.382,395.578 C337.533,390.360 333.736,385.519 330.975,379.003 C329.556,379.161 328.137,379.319 326.718,379.477 C316.611,384.218 304.648,411.289 294.550,420.204 C289.697,424.488 283.130,428.752 277.047,431.569 C268.082,435.721 256.744,436.669 248.191,432.043 C224.826,419.405 224.352,393.771 217.915,363.849 C215.207,351.258 214.947,343.115 208.927,334.961 C204.870,338.822 203.952,345.703 201.358,351.063 C197.014,360.041 192.326,369.685 187.167,378.530 C163.427,419.222 139.698,467.765 99.652,492.186 C71.521,509.341 33.167,495.649 17.813,476.085 C12.436,469.232 6.917,460.598 3.622,451.933 C-4.859,429.632 3.279,402.085 10.718,386.107 C30.355,343.929 68.716,321.334 115.263,306.074 C131.081,300.887 170.372,289.373 191.424,297.549 C194.921,293.386 205.802,261.038 206.562,253.981 C206.404,253.981 206.247,253.981 206.089,253.981 C170.802,271.750 97.902,302.297 51.400,273.871 C24.212,257.251 5.096,210.869 16.394,165.424 C28.092,118.371 50.450,78.223 85.460,54.608 C96.593,47.099 109.097,39.789 122.358,34.719 C133.682,30.389 148.007,29.846 159.730,33.298 C172.906,37.178 183.283,43.480 190.005,53.661 C210.719,85.035 206.149,156.524 197.101,196.206 C194.256,208.680 193.439,220.859 188.586,231.250 C198.239,228.594 210.747,221.387 218.388,215.622 C222.961,195.892 227.534,176.156 232.107,156.426 C233.526,147.429 234.945,138.429 236.364,129.432 C245.753,91.297 251.819,55.323 272.316,29.036 C281.405,17.380 295.390,7.370 309.688,1.095 C318.116,0.302 320.827,-2.977 339.963,7.725 ZM313.945,32.351 C303.881,40.908 294.725,46.971 287.927,58.871 C267.385,94.832 268.130,148.075 254.813,191.470 C264.464,186.008 293.990,160.945 298.807,151.690 C249.625,153.966 296.904,107.779 307.322,98.650 C314.187,98.218 315.471,99.824 319.149,103.386 C319.831,117.622 306.788,123.013 301.173,132.747 C303.965,132.247 311.180,131.710 313.945,130.379 C316.783,125.329 319.622,120.276 322.460,115.225 C331.268,96.323 356.108,31.739 313.945,32.351 ZM140.334,60.765 C137.023,61.712 133.711,62.659 130.400,63.606 C123.621,67.079 116.839,70.552 110.059,74.025 C78.018,94.135 58.357,126.199 46.670,166.844 C43.563,177.648 42.860,193.363 45.251,204.730 C46.734,211.783 45.911,216.827 48.089,222.725 C58.173,250.039 85.880,261.384 124.724,253.034 C135.238,250.774 145.493,249.990 153.580,245.457 C156.576,235.671 159.572,225.882 162.568,216.095 C181.825,162.840 185.579,59.509 140.334,60.765 ZM101.544,168.265 C115.093,168.259 158.204,181.981 154.999,196.679 C152.770,206.902 107.631,225.622 102.017,213.254 C93.523,198.674 121.548,198.413 128.035,194.311 C117.152,192.333 101.554,187.524 94.448,181.051 C94.301,178.016 93.798,176.192 94.921,173.948 C96.327,170.425 98.750,170.281 101.544,168.265 ZM168.718,325.016 C165.141,326.716 160.861,325.396 155.945,326.437 C143.990,328.969 131.530,331.146 120.466,334.961 C84.743,347.279 52.734,366.725 36.736,398.893 C25.826,420.829 29.588,448.989 46.197,461.878 C65.560,476.904 82.191,469.060 97.760,456.668 C105.073,450.847 110.349,442.708 115.736,434.884 C130.222,413.841 144.384,393.026 156.891,369.532 C164.059,356.067 175.639,341.228 179.598,325.490 C175.971,325.332 172.344,325.174 168.718,325.016 Z"/></svg>